<?xml version="1.0" encoding="UTF-8"?>
<!DOCTYPE svg PUBLIC "-//W3C//DTD SVG 1.1//EN" "http://www.w3.org/Graphics/SVG/1.1/DTD/svg11.dtd">
<svg xmlns="http://www.w3.org/2000/svg" version="1.1" width="512px" height="512px" style="shape-rendering:geometricPrecision; text-rendering:geometricPrecision; image-rendering:optimizeQuality; fill-rule:evenodd; clip-rule:evenodd" xmlns:xlink="http://www.w3.org/1999/xlink">
<g><path style="opacity:0.943" fill="#000000" d="M 243.5,-0.5 C 251.5,-0.5 259.5,-0.5 267.5,-0.5C 275.809,1.55443 283.809,4.7211 291.5,9C 306.324,19.9123 321.324,30.5789 336.5,41C 364.5,41.3333 392.5,41.6667 420.5,42C 428.667,43.5 433.5,48.3333 435,56.5C 435.333,74.8333 435.667,93.1667 436,111.5C 461.324,129.331 486.491,147.331 511.5,165.5C 511.5,274.833 511.5,384.167 511.5,493.5C 507.833,501.833 501.833,507.833 493.5,511.5C 334.833,511.5 176.167,511.5 17.5,511.5C 9.16667,507.833 3.16667,501.833 -0.5,493.5C -0.5,384.167 -0.5,274.833 -0.5,165.5C 24.5092,147.331 49.6759,129.331 75,111.5C 75.3333,93.1667 75.6667,74.8333 76,56.5C 77.5,48.3333 82.3333,43.5 90.5,42C 118.5,41.6667 146.5,41.3333 174.5,41C 189.676,30.5789 204.676,19.9123 219.5,9C 227.191,4.7211 235.191,1.55443 243.5,-0.5 Z M 246.5,17.5 C 259.386,15.8894 271.386,18.3894 282.5,25C 289.833,30.3333 297.167,35.6667 304.5,41C 271.833,41.6667 239.167,41.6667 206.5,41C 213.833,35.6667 221.167,30.3333 228.5,25C 234.266,21.6074 240.266,19.1074 246.5,17.5 Z M 93.5,59.5 C 201.5,59.5 309.5,59.5 417.5,59.5C 417.667,116.168 417.5,172.834 417,229.5C 373.167,266 329.333,302.5 285.5,339C 265.5,351.667 245.5,351.667 225.5,339C 181.667,302.5 137.833,266 94,229.5C 93.5,172.834 93.3333,116.168 93.5,59.5 Z M 74.5,133.5 C 75.8293,160.003 75.8293,186.67 74.5,213.5C 57.3539,199.522 40.3539,185.355 23.5,171C 40.6825,158.637 57.6825,146.137 74.5,133.5 Z M 435.5,133.5 C 452.955,145.781 470.288,158.281 487.5,171C 470.646,185.355 453.646,199.522 436.5,213.5C 435.5,186.842 435.167,160.175 435.5,133.5 Z M 248.5,153.5 C 261.185,152.092 270.352,157.092 276,168.5C 277.699,171.935 279.199,175.435 280.5,179C 278.671,186.135 276.838,193.302 275,200.5C 269.875,207.293 264.375,213.793 258.5,220C 247.037,228.622 235.037,229.622 222.5,223C 215.359,214.297 213.192,204.464 216,193.5C 220.474,174.825 231.308,161.492 248.5,153.5 Z M 17.5,190.5 C 76.4392,238.766 135.106,287.433 193.5,336.5C 135.171,385.325 76.6708,433.992 18,482.5C 17.5,385.167 17.3333,287.834 17.5,190.5 Z M 492.5,190.5 C 493.666,287.666 493.832,384.999 493,482.5C 434.329,433.992 375.829,385.325 317.5,336.5C 375.877,287.781 434.211,239.114 492.5,190.5 Z M 207.5,348.5 C 233.596,369.221 261.596,372.054 291.5,357C 295.6,354.533 299.434,351.699 303,348.5C 360.556,397.024 418.39,445.191 476.5,493C 329.167,493.667 181.833,493.667 34.5,493C 92.6072,445.291 150.274,397.125 207.5,348.5 Z"/></g>
<g><path style="opacity:0.936" fill="#000000" d="M 252.5,92.5 C 287.576,88.8963 315.743,100.896 337,128.5C 355.072,158.272 356.072,188.605 340,219.5C 325.581,243.75 305.415,250.584 279.5,240C 276.567,237.736 274.4,234.902 273,231.5C 256.121,246.142 237.288,249.309 216.5,241C 203.059,232.083 196.392,219.416 196.5,203C 198.477,177.372 209.811,157.039 230.5,142C 246.727,133.099 262.727,133.432 278.5,143C 280.667,145.167 282.833,147.333 285,149.5C 286.246,146.639 287.246,143.639 288,140.5C 291.854,136.329 296.354,135.496 301.5,138C 302.701,138.903 303.535,140.069 304,141.5C 304.667,144.833 304.667,148.167 304,151.5C 299.966,173.636 295.299,195.636 290,217.5C 288.257,224.596 291.09,227.93 298.5,227.5C 310.074,226.462 318.574,220.795 324,210.5C 338.405,182.982 336.072,156.982 317,132.5C 295.913,112.351 271.08,105.851 242.5,113C 208.42,123.413 184.92,145.246 172,178.5C 164.557,208.834 172.723,234.001 196.5,254C 212.376,263.847 229.71,269.514 248.5,271C 274.568,274.655 299.235,270.322 322.5,258C 330.747,253.089 337.747,246.755 343.5,239C 353.44,235.618 358.274,239.118 358,249.5C 344.611,267.191 327.111,279.024 305.5,285C 271.008,292.824 237.008,290.824 203.5,279C 162.424,258.35 145.591,225.184 153,179.5C 164.106,142.058 187.606,115.558 223.5,100C 233.095,96.6856 242.762,94.1856 252.5,92.5 Z M 248.5,153.5 C 231.308,161.492 220.474,174.825 216,193.5C 213.192,204.464 215.359,214.297 222.5,223C 235.037,229.622 247.037,228.622 258.5,220C 264.375,213.793 269.875,207.293 275,200.5C 276.838,193.302 278.671,186.135 280.5,179C 279.199,175.435 277.699,171.935 276,168.5C 270.352,157.092 261.185,152.092 248.5,153.5 Z"/></g>
</svg>
